<svg height="512" viewBox="0 0 64 64" width="512" xmlns="http://www.w3.org/2000/svg"><path d="m43.78 13 1.74-3.29a11.49 11.49 0 0 1 7.64-5.82l3.84-.89v5a11.45 11.45 0 0 0 -9.42 4.93l-.64.92z" fill="#c4f236"/><path d="m55 3.44a4.17 4.17 0 0 1 -3.12 4 11.48 11.48 0 0 0 -6.3 4.5l-.64.92-1-.27-.2.38 3.16.89.64-.92a11.45 11.45 0 0 1 9.46-4.94v-5z" fill="#a1d51c"/><path d="m35.72 16a66.85 66.85 0 0 1 -15.91 15.25l-6.5 4.44a13.75 13.75 0 1 0 14.87 23.13 48.72 48.72 0 0 0 20-29.29l1.61-7a7.87 7.87 0 0 0 -1.06-6.05 7.91 7.91 0 0 0 -13-.45z" fill="#d988ca"/><path d="m48.74 16.49a7.91 7.91 0 0 0 -2.78-2.63c0 .25-.08.49-.13.73l-1.61 7a48.77 48.77 0 0 1 -20 29.3 13.76 13.76 0 0 1 -17-1.75 13.72 13.72 0 0 0 21.05 9.75 48.77 48.77 0 0 0 20-29.3l1.61-7a7.87 7.87 0 0 0 -1.14-6.1z" fill="#bf38a7"/><path d="m41.75 8.85a10 10 0 0 0 -10 10 9.85 9.85 0 0 0 .76 3.81c2.83-1.6 6.24-3.4 6.24-2.81 0 1 2 7 2 7l5-5 .59 5.88a10 10 0 0 0 -4.59-18.88z" fill="#c4f236"/><path d="m45.75 9.69a10 10 0 0 1 0 12.57l.55 5.47a10 10 0 0 0 -.59-18z" fill="#a1d51c"/><path d="m20.76 56a8.73 8.73 0 0 1 -7.37-4 1 1 0 0 1 1.68-1.08 6.74 6.74 0 0 0 9.27 2.08 41.51 41.51 0 0 0 7.52-6.62 1 1 0 1 1 1.49 1.33 43.38 43.38 0 0 1 -7.91 7 8.68 8.68 0 0 1 -4.68 1.29z" fill="#7f256f"/><path d="m13.91 52.69a14 14 0 0 0 3.29.31 6.81 6.81 0 0 1 -2.13-2.08 1 1 0 0 0 -1.68 1.08c.16.23.34.46.52.69z" fill="#bf38a7"/></svg>