<?xml version="1.0" encoding="iso-8859-1"?>
<!-- Generator: Adobe Illustrator 19.0.0, SVG Export Plug-In . SVG Version: 6.00 Build 0)  -->
<svg version="1.1" id="Layer_1" xmlns="http://www.w3.org/2000/svg" xmlns:xlink="http://www.w3.org/1999/xlink" x="0px" y="0px"
	 viewBox="0 0 512 512" style="enable-background:new 0 0 512 512;" xml:space="preserve">
<polygon style="fill:#FDD834;" points="93.867,339.455 93.867,441.94 8.533,409.599 8.533,307.199 9.643,307.199 "/>
<path style="fill:#C52828;" d="M339.2,40.106l-0.341,0.853L254.72,73.044l-84.224-32.085l82.517-31.317
	c1.929-0.683,4.045-0.683,5.973,0L339.2,40.106z"/>
<polygon style="fill:#2E7D32;" points="254.72,73.044 176.213,102.996 91.989,70.74 170.496,40.959 "/>
<polygon style="fill:#283593;" points="176.213,102.996 93.355,134.57 8.533,102.399 91.904,70.74 91.989,70.74 "/>
<polygon style="fill:#D84315;" points="254.72,133.034 172.288,164.522 94.464,134.996 93.355,134.57 176.213,102.996 "/>
<polygon style="fill:#FDD834;" points="503.467,102.399 417.792,134.996 417.451,135.082 417.365,135.082 333.141,102.996 
	417.365,70.74 417.707,69.887 417.792,69.887 "/>
<polygon style="fill:#9E9E9E;" points="417.707,69.887 417.365,70.74 333.141,102.996 254.72,73.044 338.859,40.959 339.2,40.106 
	"/>
<polygon style="fill:#FFFFFF;" points="256,401.492 256,503.466 179.2,474.367 179.2,372.138 "/>
<polygon style="fill:#2E7D32;" points="179.2,372.138 179.2,474.367 93.867,441.94 93.867,339.455 "/>
<polygon style="fill:#283593;" points="93.867,237.055 93.867,339.455 9.643,307.199 8.533,307.199 8.533,204.799 9.643,204.799 "/>
<g>
	<polygon style="fill:#C52828;" points="94.464,134.996 93.867,136.532 93.867,237.055 9.643,204.799 8.533,204.799 8.533,102.399 
		93.355,134.57 	"/>
	<polygon style="fill:#C52828;" points="503.467,102.399 503.467,204.799 502.357,204.799 418.133,237.055 418.133,135.935 
		417.451,135.082 417.792,134.996 	"/>
</g>
<polygon style="fill:#9E9E9E;" points="503.467,204.799 503.467,307.199 502.357,307.199 418.133,339.455 418.133,237.055 
	502.357,204.799 "/>
<polygon style="fill:#2E7D32;" points="503.467,307.199 503.467,409.599 418.133,441.94 418.133,339.455 502.357,307.199 "/>
<polygon style="fill:#F44335;" points="477.867,110.932 477.867,213.332 476.757,213.332 392.533,245.588 392.533,144.468 
	391.851,143.615 392.192,143.53 "/>
<polygon style="fill:#FFFFFF;" points="477.867,213.332 477.867,315.732 476.757,315.732 392.533,347.988 392.533,245.588 
	476.757,213.332 "/>
<polygon style="fill:#4CAF50;" points="477.867,315.732 477.867,418.132 392.533,450.474 392.533,347.988 476.757,315.732 "/>
<polygon style="fill:#9E9E9E;" points="418.133,339.455 418.133,441.94 332.8,474.367 332.8,372.138 "/>
<polygon style="fill:#3F51B5;" points="332.8,372.138 332.8,474.367 256,503.466 256,401.492 "/>
<path style="fill:#FDD834;" d="M338.347,165.034l-6.741,2.56l-72.96,27.648c-1.715,0.597-3.575,0.597-5.291,0L179.2,167.167
	l-6.912-2.645l82.432-31.488L338.347,165.034z"/>
<polygon style="fill:#FFFFFF;" points="417.365,135.082 338.347,165.034 254.72,133.034 333.141,102.996 "/>
<polygon style="fill:#3F51B5;" points="333.141,102.996 254.72,133.034 176.213,102.996 254.72,73.044 "/>
<polygon style="fill:#FDD834;" points="256,299.092 256,401.492 179.2,372.138 179.2,269.738 "/>
<polygon style="fill:#FF5722;" points="256,196.266 256,299.092 179.2,269.738 179.2,167.167 253.355,195.242 "/>
<polygon style="fill:#FDD834;" points="179.2,167.167 179.2,269.738 93.867,237.055 93.867,136.532 94.464,134.996 172.288,164.522 
	"/>
<polygon style="fill:#F44335;" points="179.2,269.738 179.2,372.138 93.867,339.455 93.867,237.055 "/>
<polygon style="fill:#FDD834;" points="418.133,237.055 418.133,339.455 332.8,372.138 332.8,269.738 "/>
<polygon style="fill:#3F51B5;" points="418.133,135.935 418.133,237.055 332.8,269.738 332.8,170.666 331.605,167.594 
	338.347,165.034 417.365,135.082 417.451,135.082 "/>
<polygon style="fill:#FFFFFF;" points="332.8,170.666 332.8,269.738 256,299.092 256,196.266 258.645,195.242 331.605,167.594 "/>
<polygon style="fill:#4CAF50;" points="332.8,269.738 332.8,372.138 256,401.492 256,299.092 "/>
<path d="M256,203.911c-2.048,0-4.105-0.367-6.059-1.118L5.513,110.079C2.193,108.825,0,105.65,0,102.1
	c0-3.541,2.193-6.724,5.504-7.979l83.371-31.659c0.222-0.085,0.444-0.162,0.674-0.222L249.95,1.407c3.9-1.485,8.192-1.468,12.092,0
	l158.131,59.998c0.222,0.06,0.435,0.137,0.64,0.213l85.675,32.512c3.319,1.254,5.512,4.429,5.512,7.97
	c0,3.541-2.193,6.716-5.504,7.979l-86.016,32.683c-0.222,0.085-0.452,0.162-0.683,0.23l-157.747,59.81
	C260.096,203.545,258.048,203.911,256,203.911z M32.58,102.1L256,186.845l158.345-60.041c0.213-0.085,0.444-0.162,0.666-0.222
	l64.418-24.474L415.326,77.78c-0.222-0.06-0.435-0.128-0.64-0.213L256,17.364L95.01,78.42c-0.222,0.085-0.444,0.162-0.674,0.222
	L32.58,102.1z"/>
<path d="M256,511.7c-1.024,0-2.048-0.179-3.021-0.555L5.513,417.279C2.193,416.025,0,412.842,0,409.3V102.1
	c0-2.807,1.382-5.427,3.686-7.023s5.248-1.954,7.868-0.956l247.467,93.867c3.319,1.254,5.513,4.429,5.513,7.979v307.2
	c0,2.807-1.374,5.436-3.686,7.023C259.396,511.188,257.707,511.7,256,511.7z M17.067,403.412l230.4,87.39V201.855l-230.4-87.39
	V403.412z"/>
<path d="M256,511.7c-1.707,0-3.405-0.521-4.847-1.51c-2.304-1.587-3.686-4.215-3.686-7.023v-307.2c0-3.55,2.193-6.724,5.513-7.979
	l161.365-61.184c0.213-0.085,0.444-0.162,0.666-0.222l85.427-32.461c2.628-0.998,5.564-0.64,7.876,0.947
	c2.313,1.596,3.686,4.224,3.686,7.031v307.2c0,3.541-2.193,6.724-5.513,7.979l-247.467,93.867
	C258.048,511.521,257.015,511.7,256,511.7z M264.533,201.855v288.947l230.4-87.39V114.474l-74.453,28.288
	c-0.222,0.085-0.452,0.162-0.683,0.23L264.533,201.855z"/>
<path d="M338.347,173.268c-1.015,0-2.048-0.179-3.046-0.563L89.182,78.506c-3.345-1.161-5.769-4.335-5.769-8.064
	c0-5.751,6.246-10.018,11.622-7.97l246.366,94.293c4.403,1.69,6.605,6.622,4.915,11.025
	C345.02,171.186,341.786,173.268,338.347,173.268z"/>
<path d="M417.365,143.316c-1.007,0-2.039-0.179-3.038-0.563L167.458,48.63c-4.403-1.681-6.613-6.605-4.941-11.017
	c1.673-4.412,6.613-6.613,11.017-4.941l246.878,94.123c4.403,1.681,6.605,6.605,4.932,11.017
	C424.038,141.226,420.804,143.316,417.365,143.316z"/>
<path d="M172.288,172.765c-3.43,0-6.673-2.091-7.97-5.495c-1.681-4.403,0.529-9.335,4.924-11.017l245.077-93.781
	c5.376-2.057,11.622,2.219,11.622,7.97c0,3.891-2.577,7.177-6.135,8.201l-244.471,93.551
	C174.327,172.577,173.303,172.765,172.288,172.765z"/>
<path d="M93.355,142.804c-3.439,0-6.673-2.099-7.979-5.504c-1.681-4.403,0.538-9.335,4.941-11.017l245.504-93.611
	c4.403-1.673,9.335,0.529,11.017,4.932c1.673,4.403-0.538,9.335-4.932,11.017L96.393,142.233
	C95.394,142.625,94.37,142.804,93.355,142.804z"/>
<path d="M179.2,482.602c-4.71,0-8.533-3.814-8.533-8.533V162.516c0-4.71,3.823-8.533,8.533-8.533s8.533,3.823,8.533,8.533v311.552
	C187.733,478.787,183.91,482.602,179.2,482.602z"/>
<path d="M93.867,450.175c-4.71,0-8.533-3.814-8.533-8.533V136.234c0-4.71,3.823-8.533,8.533-8.533c4.71,0,8.533,3.823,8.533,8.533
	V441.65C102.4,446.361,98.577,450.175,93.867,450.175z"/>
<path d="M332.8,482.602c-4.719,0-8.533-3.814-8.533-8.533V170.367c0-4.71,3.814-8.533,8.533-8.533s8.533,3.823,8.533,8.533v303.701
	C341.333,478.787,337.519,482.602,332.8,482.602z"/>
<path d="M418.133,450.175c-4.719,0-8.533-3.814-8.533-8.533V135.636c0-4.71,3.814-8.533,8.533-8.533
	c4.719,0,8.533,3.823,8.533,8.533v306.005C426.667,446.361,422.852,450.175,418.133,450.175z"/>
<path d="M256,307.327c-1.015,0-2.048-0.179-3.046-0.563L6.835,212.564c-3.345-1.161-5.769-4.335-5.769-8.064
	c0-5.751,6.238-10.027,11.622-7.97l246.357,94.302c4.403,1.681,6.605,6.613,4.915,11.017
	C262.665,305.245,259.43,307.327,256,307.327z"/>
<path d="M256,409.727c-1.015,0-2.048-0.179-3.046-0.563L6.835,314.964c-3.345-1.161-5.769-4.326-5.769-8.055
	c0-5.76,6.238-10.035,11.622-7.97l246.357,94.293c4.403,1.681,6.605,6.613,4.915,11.017C262.665,407.645,259.43,409.727,256,409.727
	z"/>
<path d="M256,307.327c-3.43,0-6.673-2.082-7.97-5.487c-1.681-4.403,0.521-9.335,4.924-11.017l246.357-94.302
	c5.376-2.065,11.622,2.21,11.622,7.97c0,3.891-2.577,7.177-6.135,8.201l-245.751,94.071
	C258.048,307.148,257.015,307.327,256,307.327z"/>
<path d="M256,409.727c-3.43,0-6.673-2.082-7.97-5.487c-1.681-4.403,0.521-9.335,4.924-11.017l246.357-94.293
	c5.376-2.082,11.622,2.202,11.622,7.97c0,3.891-2.577,7.177-6.135,8.201l-245.751,94.063
	C258.048,409.548,257.015,409.727,256,409.727z"/>
<g>
</g>
<g>
</g>
<g>
</g>
<g>
</g>
<g>
</g>
<g>
</g>
<g>
</g>
<g>
</g>
<g>
</g>
<g>
</g>
<g>
</g>
<g>
</g>
<g>
</g>
<g>
</g>
<g>
</g>
</svg>
